<?xml version="1.0" standalone="no"?>
<!DOCTYPE svg PUBLIC "-//W3C//DTD SVG 20010904//EN"
 "http://www.w3.org/TR/2001/REC-SVG-20010904/DTD/svg10.dtd">
<svg version="1.0" xmlns="http://www.w3.org/2000/svg"
 width="400.000000pt" height="400.000000pt" viewBox="0 0 400.000000 400.000000"
 preserveAspectRatio="xMidYMid meet">

<g transform="translate(0.000000,400.000000) scale(0.100000,-0.100000)"
fill="#000000" stroke="none">
<path d="M0 2788 l0 -1213 48 75 c26 41 71 113 99 160 29 47 62 95 74 105 l23
20 -20 -30 c-11 -16 -37 -65 -57 -109 -21 -43 -67 -128 -103 -188 l-65 -109 2
-260 c1 -143 5 -255 9 -248 5 7 5 19 2 28 -5 14 -3 14 11 2 20 -16 23 -8 3 11
-11 12 -8 14 19 14 26 0 30 -2 19 -10 -8 -7 -10 -16 -5 -24 6 -10 11 -5 21 17
7 17 16 28 21 25 5 -3 6 -11 3 -17 -5 -8 -4 -9 4 -2 8 8 8 25 -3 64 -8 30 -10
50 -6 45 12 -13 43 -135 37 -142 -3 -3 -6 2 -6 11 0 30 -23 18 -77 -40 l-53
-58 0 -107 c0 -76 3 -108 12 -108 6 0 36 14 67 31 31 18 58 32 61 32 15 0 40
64 40 104 0 25 3 43 7 39 4 -3 13 6 20 21 7 16 11 20 8 11 -2 -10 0 -18 5 -18
26 0 28 -132 3 -187 -9 -21 -20 -47 -25 -58 l-8 -20 16 20 c14 18 35 55 83
144 8 14 17 28 21 31 4 3 15 20 24 37 9 18 19 33 22 33 3 0 -8 -25 -24 -55
-17 -30 -27 -55 -24 -55 12 0 71 124 88 185 10 33 19 53 21 43 2 -9 -3 -32
-11 -52 -27 -65 -7 -37 38 52 24 48 60 130 80 182 37 96 61 151 52 118 -9 -31
5 -19 20 17 8 20 12 40 9 44 -6 11 35 111 46 111 12 0 11 -17 -1 -25 -8 -5 -7
-11 1 -21 7 -8 7 -14 1 -14 -15 0 -24 -32 -12 -44 7 -7 10 -3 10 13 0 15 5 21
13 18 14 -5 60 55 60 79 0 10 4 11 11 4 15 -15 26 -12 20 4 -3 8 -1 17 4 20
13 8 7 -36 -11 -70 -29 -57 -95 -299 -103 -376 -2 -21 1 -40 7 -44 7 -4 9 1 4
15 -3 11 -3 21 2 21 4 0 14 10 22 23 13 20 13 21 -3 8 -23 -19 -25 -11 -5 27
14 27 18 30 22 15 2 -11 7 -1 12 25 4 23 11 42 14 42 4 0 13 30 21 68 12 62
36 136 72 222 8 19 18 43 22 54 5 15 9 16 21 6 12 -10 15 -10 15 3 0 8 -3 17
-7 20 -5 2 -2 2 5 1 6 -2 12 0 12 4 0 5 -6 14 -12 21 -11 11 -10 13 2 9 9 -3
14 -15 13 -29 -1 -13 -9 -116 -18 -229 -8 -113 -20 -234 -25 -270 -13 -88 -40
-176 -49 -161 -4 7 -7 -7 -7 -31 1 -31 -3 -43 -14 -43 -9 0 -14 -8 -12 -20 6
-40 3 -58 -23 -108 -14 -29 -19 -43 -10 -32 32 39 95 176 114 247 11 40 25
118 31 173 6 55 18 144 26 198 8 54 12 103 8 109 -5 7 -3 8 6 3 10 -6 12 -3 8
13 -3 12 -2 22 2 24 10 4 43 335 35 349 -4 5 -1 9 4 9 6 0 11 7 11 15 0 8 5
15 11 15 7 0 9 15 6 44 -6 48 9 80 43 89 16 4 20 0 20 -20 0 -13 -4 -21 -10
-18 -6 3 -7 -1 -4 -10 9 -22 -6 -126 -17 -120 -5 3 -6 -1 -3 -9 3 -8 1 -48 -5
-88 -17 -124 -24 -244 -13 -233 5 6 12 28 14 50 8 65 48 233 63 262 8 16 20
54 26 86 21 106 30 75 50 -173 18 -228 27 -247 25 -50 0 96 2 200 5 230 13
115 32 209 40 204 5 -3 9 -1 9 3 0 5 14 14 30 20 33 13 37 7 16 -23 -8 -11
-20 -48 -26 -83 -6 -35 -15 -74 -20 -87 -17 -44 -30 -214 -18 -242 6 -15 16
-63 22 -107 12 -73 12 -64 8 121 -3 118 -1 204 5 207 5 3 8 -9 7 -26 -1 -25 0
-26 4 -7 l5 25 7 -25 c5 -18 8 -10 8 29 0 29 5 56 10 60 6 3 9 21 8 39 -1 18
1 35 4 37 4 3 13 32 20 65 8 38 18 60 27 60 7 0 16 7 20 16 9 25 23 -4 24 -51
0 -32 2 -36 10 -20 6 14 7 4 3 -30 -4 -37 -3 -46 5 -35 6 9 10 57 9 115 l-2
100 60 130 c165 352 177 383 164 415 -7 16 -9 42 -6 57 6 21 4 25 -6 17 -8 -5
-7 -2 2 6 9 8 19 23 23 33 4 10 11 16 16 12 5 -3 13 0 17 6 4 7 3 9 -4 5 -6
-3 -13 -2 -17 4 -3 5 1 10 10 10 9 0 13 4 10 10 -3 5 3 15 15 22 21 14 28 33
8 23 -7 -4 -4 2 7 12 32 28 161 176 172 197 9 16 4 29 -24 68 -39 54 -77 78
-123 78 -28 0 -30 3 -30 35 0 28 -4 35 -19 35 -31 0 -60 32 -63 70 -3 33 1 37
59 77 74 49 152 80 248 98 84 15 57 19 -35 5 -71 -11 -168 -55 -242 -107 -47
-34 -59 -33 -54 2 4 28 95 80 110 64 8 -9 8 -10 -1 -5 -7 4 -13 2 -13 -3 0
-18 19 -12 30 9 10 19 8 20 -26 15 -20 -2 -44 0 -54 5 -11 6 -26 4 -45 -6 -15
-8 -30 -12 -32 -10 -5 5 307 158 357 175 19 7 88 23 154 37 207 42 549 29 625
-25 16 -12 32 -21 37 -21 4 0 29 -14 55 -31 46 -29 49 -30 78 -15 17 9 55 16
89 16 50 0 74 -7 161 -50 102 -50 296 -163 446 -259 44 -28 84 -51 89 -51 5 0
6 24 3 53 -4 34 -3 43 3 27 4 -14 8 -41 9 -62 1 -36 2 -37 153 -125 84 -48
156 -89 160 -91 4 -2 8 168 8 377 l0 381 -2000 0 -2000 0 0 -1212z m2790 1056
c0 -2 -9 0 -20 6 -11 6 -20 13 -20 16 0 2 9 0 20 -6 11 -6 20 -13 20 -16z
m-1153 -180 c-3 -3 -12 -4 -19 -1 -8 3 -5 6 6 6 11 1 17 -2 13 -5z m2022 -99
c0 -5 -6 1 -14 15 -8 14 -14 30 -14 35 0 6 6 -1 14 -15 8 -14 14 -29 14 -35z
m-2485 -187 c-4 -6 -2 -8 3 -5 6 4 16 0 23 -8 11 -13 9 -20 -8 -38 -11 -12
-22 -35 -24 -52 -3 -32 -25 -41 -44 -17 -12 16 11 122 29 134 15 9 29 -1 21
-14z m371 -795 c-21 -58 -81 -184 -110 -228 -25 -39 -26 -39 -21 -10 3 17 8
50 12 74 10 70 33 113 82 159 26 23 48 42 49 42 1 0 -4 -17 -12 -37z m-156
-211 c-10 -93 -34 -145 -85 -191 -39 -34 -91 -57 -103 -45 -3 2 4 21 14 42 9
20 20 69 23 107 3 44 10 77 21 89 16 19 106 66 127 66 7 0 8 -22 3 -68z m-944
-375 c-17 -163 -48 -418 -66 -527 -33 -203 -41 -224 -121 -310 l-69 -75 6 55
c6 49 41 173 65 225 36 81 50 168 50 304 0 125 3 150 25 214 27 76 91 181 106
171 5 -3 7 -29 4 -57z m-228 -14 c0 -16 -44 -62 -59 -63 -5 0 -8 7 -8 15 0 8
7 15 16 15 8 0 13 4 10 9 -3 5 2 8 11 7 10 0 18 5 19 12 3 28 11 32 11 5z
m1050 -35 c-3 -8 -6 -5 -6 6 -1 11 2 17 5 13 3 -3 4 -12 1 -19z m-1137 -18 c5
9 9 8 13 -3 3 -9 -6 -26 -24 -41 -26 -23 -30 -24 -36 -10 -4 10 0 22 10 29 10
7 17 18 18 26 0 12 1 12 6 0 4 -10 7 -10 13 -1z m827 -32 c-3 -8 -6 -5 -6 6
-1 11 2 17 5 13 3 -3 4 -12 1 -19z m-819 -35 c-20 -21 -48 -58 -62 -83 -31
-54 -34 -46 -5 12 11 22 37 56 57 74 49 45 55 43 10 -3z m464 -59 c-3 -18 -7
-22 -13 -13 -4 7 -3 19 3 26 15 18 16 17 10 -13z m-65 -36 c-3 -7 -5 -2 -5 12
0 14 2 19 5 13 2 -7 2 -19 0 -25z m73 -14 c0 -2 -5 -3 -11 -1 -7 1 -16 -13
-21 -30 -10 -38 -38 -45 -37 -10 0 21 1 21 9 2 7 -18 8 -19 15 -2 4 10 1 24
-6 34 -12 14 -12 16 0 8 11 -6 13 -3 9 13 -6 20 -5 20 18 5 13 -8 24 -17 24
-19z m251 -41 c-12 -20 -14 -14 -5 12 4 9 9 14 11 11 3 -2 0 -13 -6 -23z
m-334 -15 c-3 -7 -5 -2 -5 12 0 14 2 19 5 13 2 -7 2 -19 0 -25z m-490 -20 c-3
-7 -5 -2 -5 12 0 14 2 19 5 13 2 -7 2 -19 0 -25z m505 -10 c3 -7 -6 -33 -18
-57 l-24 -44 1 44 c0 24 3 38 6 32 2 -7 9 -13 14 -13 6 0 6 7 0 19 -10 18 -6
31 10 31 4 0 9 -6 11 -12z m355 -20 c-3 -8 -6 -5 -6 6 -1 11 2 17 5 13 3 -3 4
-12 1 -19z m-74 -13 c-3 -9 -8 -14 -10 -11 -3 3 -2 9 2 15 9 16 15 13 8 -4z
m-152 -96 c-5 -13 -10 -19 -10 -12 -1 15 10 45 15 40 3 -2 0 -15 -5 -28z
m-634 -251 c-3 -8 -6 -5 -6 6 -1 11 2 17 5 13 3 -3 4 -12 1 -19z m424 -191
c-10 -9 -11 -8 -5 6 3 10 9 15 12 12 3 -3 0 -11 -7 -18z m313 -243 c3 -8 2
-12 -4 -9 -6 3 -10 10 -10 16 0 14 7 11 14 -7z"/>
<path d="M3010 3720 c-11 -7 -5 -10 25 -10 87 -1 210 -54 305 -133 69 -57 280
-288 280 -306 0 -6 4 -11 9 -11 5 0 18 -15 28 -33 16 -26 207 -245 324 -371
19 -20 19 -18 17 174 l-3 194 -150 88 c-82 48 -152 88 -155 88 -3 0 -11 -12
-17 -27 -10 -27 -10 -26 -6 8 l5 35 -158 91 c-283 161 -339 191 -387 207 -54
18 -95 20 -117 6z"/>
<path d="M1815 3631 c-11 -5 -24 -6 -29 -3 -5 3 -6 -1 -1 -8 6 -10 4 -12 -8
-7 -8 3 -21 -1 -27 -9 -7 -8 -19 -14 -26 -14 -8 0 -14 -4 -14 -10 0 -9 82 23
127 49 21 12 7 13 -22 2z"/>
<path d="M2821 3627 c2 -1 15 -11 28 -22 l24 -20 -12 23 c-6 12 -19 22 -28 22
-9 0 -14 -1 -12 -3z"/>
<path d="M2560 3600 c-14 -5 -59 -18 -100 -31 -151 -44 -306 -145 -456 -294
-107 -106 -164 -176 -214 -260 -31 -53 -14 -35 42 45 26 36 83 103 128 150 45
47 90 97 101 111 22 31 188 144 274 187 53 26 156 62 265 91 28 7 30 9 10 9
-14 0 -36 -3 -50 -8z"/>
<path d="M1884 3504 c-18 -14 -18 -15 4 -4 12 6 22 13 22 15 0 8 -5 6 -26 -11z"/>
<path d="M2868 3453 c7 -3 16 -2 19 1 4 3 -2 6 -13 5 -11 0 -14 -3 -6 -6z"/>
<path d="M2908 3453 c7 -3 16 -2 19 1 4 3 -2 6 -13 5 -11 0 -14 -3 -6 -6z"/>
<path d="M2519 3283 c-13 -16 -12 -17 4 -4 9 7 17 15 17 17 0 8 -8 3 -21 -13z"/>
<path d="M2469 3243 c-13 -16 -12 -17 4 -4 16 13 21 21 13 21 -2 0 -10 -8 -17
-17z"/>
<path d="M3738 3063 c82 -106 109 -150 193 -315 l64 -128 3 80 c3 92 5 89 -89
187 -35 38 -102 112 -148 166 -46 53 -86 97 -88 97 -2 0 27 -39 65 -87z"/>
<path d="M2319 3093 c-13 -16 -12 -17 4 -4 16 13 21 21 13 21 -2 0 -10 -8 -17
-17z"/>
<path d="M2254 3018 l-19 -23 23 19 c21 18 27 26 19 26 -2 0 -12 -10 -23 -22z"/>
<path d="M2185 2929 c-4 -6 -5 -12 -2 -15 2 -3 7 2 10 11 7 17 1 20 -8 4z"/>
<path d="M1891 2904 c0 -11 3 -14 6 -6 3 7 2 16 -1 19 -3 4 -6 -2 -5 -13z"/>
<path d="M1881 2864 c0 -11 3 -14 6 -6 3 7 2 16 -1 19 -3 4 -6 -2 -5 -13z"/>
<path d="M2122 2843 c-26 -38 -34 -53 -29 -53 2 0 16 18 31 40 29 45 28 56 -2
13z"/>
<path d="M1866 2815 c-14 -62 -79 -263 -106 -330 -15 -38 -35 -103 -44 -142
-37 -169 -46 -211 -54 -258 l-7 -50 -55 -13 c-30 -7 -65 -15 -77 -17 -36 -8
-27 -20 26 -34 53 -13 60 -23 62 -79 1 -20 5 -50 9 -67 5 -18 6 0 3 43 -4 50
-2 72 6 72 6 0 11 -8 11 -17 0 -29 24 -66 43 -69 21 -3 23 14 2 22 -8 4 -12
10 -9 15 8 14 24 1 36 -29 l11 -27 8 28 c4 16 5 35 3 42 -3 7 -1 16 5 19 7 4
9 -26 8 -88 -1 -57 2 -91 7 -86 5 5 8 44 8 88 -2 58 2 83 14 98 13 16 15 16
10 2 -13 -41 -19 -121 -9 -115 13 8 27 -39 17 -55 -4 -6 -3 -8 4 -4 6 3 13 2
17 -4 3 -5 10 -10 15 -10 12 0 21 30 13 43 -4 7 -10 2 -15 -13 l-7 -25 2 25
c1 14 6 23 11 22 5 -2 13 2 17 10 7 10 9 9 9 -4 0 -11 6 -15 20 -11 12 3 20 0
20 -6 0 -7 5 -9 10 -6 6 3 10 2 10 -3 0 -15 28 -23 36 -10 5 7 2 8 -7 3 -8 -5
-11 -4 -7 0 13 14 57 14 72 0 7 -8 17 -11 21 -7 5 4 5 2 2 -4 -10 -17 13 -90
23 -74 5 8 4 22 -2 33 -7 13 -7 22 1 30 8 8 11 8 11 -2 0 -7 4 -9 10 -6 6 4 7
-1 3 -10 -5 -15 -3 -15 15 -4 23 15 42 50 42 79 0 33 23 22 60 -29 37 -52 56
-62 25 -14 l-18 28 24 -21 c41 -36 54 -40 32 -8 -31 44 -38 73 -18 80 14 6 12
11 -12 38 -56 61 -58 65 -32 76 21 9 20 10 -13 7 -21 -2 -38 1 -38 5 0 4 6 8
13 9 27 1 -30 18 -65 18 -39 1 -52 16 -20 24 9 2 -3 4 -28 4 -25 0 -61 3 -80
6 -19 3 -53 7 -75 8 -31 2 -34 3 -12 6 40 6 33 28 -10 31 -20 1 -38 4 -40 6
-2 2 1 23 6 47 13 59 5 63 -10 5 -8 -33 -16 -46 -25 -42 -9 3 -16 -4 -20 -19
-3 -14 -11 -25 -18 -26 -6 0 -24 -2 -40 -4 -34 -5 -28 2 39 44 28 17 42 31 33
31 -9 0 -20 -5 -23 -10 -4 -6 -23 -19 -44 -29 -30 -16 -38 -17 -38 -6 0 8 4
12 9 9 5 -3 6 7 3 23 -5 22 -4 25 5 13 9 -12 10 -8 5 16 -5 24 -2 33 10 38 9
3 14 10 10 15 -6 10 24 31 44 31 5 0 12 -12 14 -27 3 -23 4 -21 6 10 1 41 -2
43 -39 22 -27 -16 -66 -21 -42 -6 7 4 12 12 11 17 -2 5 0 18 3 29 3 11 11 41
18 67 7 26 16 45 20 43 5 -3 11 3 14 12 7 25 -1 -87 -9 -117 -6 -23 -5 -24 8
-7 11 13 17 56 21 155 6 152 14 197 51 321 14 47 24 89 22 95 -2 6 -7 -3 -11
-19z m-179 -707 c-3 -7 -5 -2 -5 12 0 14 2 19 5 13 2 -7 2 -19 0 -25z m123
-53 c0 -8 -4 -15 -10 -15 -5 0 -10 7 -10 15 0 8 5 15 10 15 6 0 10 -7 10 -15z
m35 5 c-3 -5 -11 -10 -16 -10 -6 0 -7 5 -4 10 3 6 11 10 16 10 6 0 7 -4 4 -10z
m-210 -70 c7 -12 -38 -12 -75 0 -20 7 -16 8 22 9 26 1 50 -3 53 -9z m502 -16
c-3 -3 -12 -4 -19 -1 -8 3 -5 6 6 6 11 1 17 -2 13 -5z m-193 -49 c-6 -16 -24
-21 -24 -7 0 11 11 22 21 22 5 0 6 -7 3 -15z m291 -63 c-3 -3 -11 0 -18 7 -9
10 -8 11 6 5 10 -3 15 -9 12 -12z m-105 -58 c0 -4 -6 -4 -14 -1 -7 3 -19 0
-25 -6 -6 -6 -11 -8 -11 -4 0 4 -9 3 -21 -3 -19 -11 -20 -10 -9 10 7 12 18 19
26 16 8 -3 14 -1 14 5 0 6 7 6 20 -1 11 -6 20 -13 20 -16z"/>
<path d="M2387 2817 c-13 -33 -222 -273 -355 -407 -127 -127 -145 -143 -152
-125 -5 11 -9 14 -9 7 -1 -7 -6 -10 -11 -7 -6 4 -5 -5 2 -20 7 -16 17 -24 26
-20 11 4 12 2 4 -8 -7 -8 -8 -24 -3 -43 7 -29 8 -28 14 14 4 23 12 43 17 43 6
1 14 2 19 3 5 0 13 4 17 9 9 9 126 8 179 -2 40 -7 42 -10 30 -46 -4 -12 1 -8
14 10 25 36 18 41 -63 50 -128 13 -138 15 -124 33 7 8 -8 3 -34 -12 -57 -33
-64 -29 -10 7 60 39 132 109 125 120 -3 6 -1 7 5 3 7 -4 16 2 21 17 5 13 17
27 25 30 9 4 16 11 16 16 0 5 19 30 43 55 23 24 47 51 52 58 34 44 93 116 109
133 19 20 19 20 12 0 -16 -42 -17 -49 -5 -30 7 11 13 27 14 35 1 8 9 30 19 48
10 19 15 36 13 38 -3 3 -7 -2 -10 -9z"/>
<path d="M2065 2754 c-9 -15 -12 -23 -6 -20 11 7 35 46 28 46 -3 0 -12 -12
-22 -26z"/>
<path d="M2036 2703 c-6 -14 -5 -15 5 -6 7 7 10 15 7 18 -3 3 -9 -2 -12 -12z"/>
<path d="M1995 2629 c-4 -6 -5 -12 -2 -15 2 -3 7 2 10 11 7 17 1 20 -8 4z"/>
<path d="M2306 2615 c-9 -26 -7 -32 5 -12 6 10 9 21 6 23 -2 3 -7 -2 -11 -11z"/>
<path d="M3902 2470 c28 -84 61 -171 74 -194 l24 -41 0 53 c0 47 -9 70 -71
190 -39 75 -73 139 -75 141 -2 2 20 -65 48 -149z"/>
<path d="M2286 2555 c-9 -26 -7 -32 5 -12 6 10 9 21 6 23 -2 3 -7 -2 -11 -11z"/>
<path d="M1956 2543 c-6 -14 -5 -15 5 -6 7 7 10 15 7 18 -3 3 -9 -2 -12 -12z"/>
<path d="M2432 2508 c-32 -131 -50 -213 -47 -216 2 -2 11 23 21 55 l17 58 9
-43 c14 -67 20 -44 8 35 -6 47 -6 81 1 107 6 21 9 40 6 42 -2 3 -9 -15 -15
-38z"/>
<path d="M2310 2326 c-6 -19 -25 -53 -41 -76 -19 -26 -29 -50 -26 -63 4 -22 4
-22 6 -1 2 35 23 45 55 29 39 -20 44 -19 18 5 -12 11 -26 20 -31 20 -5 0 2 25
16 56 14 30 23 58 20 60 -3 3 -10 -10 -17 -30z"/>
<path d="M2196 2293 c-6 -14 -5 -15 5 -6 7 7 10 15 7 18 -3 3 -9 -2 -12 -12z"/>
<path d="M2440 2226 c0 -14 4 -27 8 -30 5 -3 6 8 4 25 -5 35 -12 38 -12 5z"/>
<path d="M3946 2214 c3 -19 17 -65 30 -102 l23 -67 0 53 c1 37 -6 67 -24 102
-14 28 -28 50 -31 50 -3 0 -2 -16 2 -36z"/>
<path d="M2367 2203 c-4 -3 -6 -18 -6 -32 1 -21 2 -22 6 -6 3 11 10 26 15 33
11 12 -3 18 -15 5z"/>
<path d="M2140 2170 c-6 -11 -8 -20 -6 -20 3 0 10 9 16 20 6 11 8 20 6 20 -3
0 -10 -9 -16 -20z"/>
<path d="M2209 2173 c-13 -16 -12 -17 4 -4 16 13 21 21 13 21 -2 0 -10 -8 -17
-17z"/>
<path d="M2443 2160 c6 -11 15 -20 19 -20 12 0 -3 28 -18 34 -11 4 -12 2 -1
-14z"/>
<path d="M1781 2144 c0 -11 3 -14 6 -6 3 7 2 16 -1 19 -3 4 -6 -2 -5 -13z"/>
<path d="M3461 2114 c0 -11 3 -14 6 -6 3 7 2 16 -1 19 -3 4 -6 -2 -5 -13z"/>
<path d="M1245 2110 c-3 -6 1 -7 9 -4 18 7 21 14 7 14 -6 0 -13 -4 -16 -10z"/>
<path d="M3532 2100 c0 -14 2 -19 5 -12 2 6 2 18 0 25 -3 6 -5 1 -5 -13z"/>
<path d="M2084 2088 l-19 -23 23 19 c21 18 27 26 19 26 -2 0 -12 -10 -23 -22z"/>
<path d="M3318 2093 c-2 -10 -1 -36 3 -58 6 -37 6 -36 8 18 1 57 -3 73 -11 40z"/>
<path d="M2532 2070 c0 -19 2 -27 5 -17 2 9 2 25 0 35 -3 9 -5 1 -5 -18z"/>
<path d="M1426 2015 c4 -37 2 -46 -6 -35 -12 17 -12 19 31 -155 16 -60 25 -90
22 -65 -4 25 -7 57 -7 72 1 16 -3 25 -9 21 -6 -4 -8 0 -4 11 4 9 0 31 -9 47
-8 17 -13 42 -10 57 3 15 1 43 -4 62 -8 31 -9 30 -4 -15z"/>
<path d="M2106 2019 c7 -11 41 -17 54 -9 7 5 -2 9 -23 12 -20 2 -34 1 -31 -3z"/>
<path d="M3282 1993 c-15 -48 -8 -55 8 -8 7 20 10 38 8 41 -3 2 -10 -13 -16
-33z"/>
<path d="M3171 2004 c0 -11 3 -14 6 -6 3 7 2 16 -1 19 -3 4 -6 -2 -5 -13z"/>
<path d="M1203 1930 c0 -25 2 -35 4 -22 2 12 2 32 0 45 -2 12 -4 2 -4 -23z"/>
<path d="M3140 1949 c-7 -11 -10 -23 -7 -25 2 -2 9 7 15 21 14 30 7 33 -8 4z"/>
<path d="M1006 1924 c-3 -9 -4 -19 -1 -22 3 -3 5 1 5 9 0 11 2 11 10 -1 5 -8
10 -10 10 -5 0 6 -4 16 -9 23 -6 11 -10 10 -15 -4z"/>
<path d="M2502 1890 c0 -19 2 -27 5 -17 2 9 2 25 0 35 -3 9 -5 1 -5 -18z"/>
<path d="M3110 1890 c-6 -11 -8 -26 -4 -32 4 -6 3 -8 -3 -5 -5 4 -23 -8 -39
-26 -28 -30 -28 -31 -2 -8 26 23 29 23 52 8 14 -9 27 -13 30 -8 3 5 -1 12 -10
15 -13 5 -15 15 -11 41 7 40 3 44 -13 15z"/>
<path d="M3151 1864 c0 -11 3 -14 6 -6 3 7 2 16 -1 19 -3 4 -6 -2 -5 -13z"/>
<path d="M1661 1824 c0 -11 3 -14 6 -6 3 7 2 16 -1 19 -3 4 -6 -2 -5 -13z"/>
<path d="M2492 1805 c0 -16 2 -22 5 -12 2 9 2 23 0 30 -3 6 -5 -1 -5 -18z"/>
<path d="M3172 1747 c-29 -45 -43 -71 -30 -57 13 14 33 40 43 58 11 17 22 32
26 32 4 0 30 -16 58 -35 29 -20 51 -30 51 -23 0 7 -23 28 -50 46 -31 22 -47
39 -43 48 11 29 -3 11 -55 -69z"/>
<path d="M1672 1790 c0 -8 4 -26 8 -40 6 -20 8 -21 8 -5 0 11 -3 29 -8 40 -5
12 -8 14 -8 5z"/>
<path d="M1770 1784 c0 -8 5 -12 10 -9 6 4 8 11 5 16 -9 14 -15 11 -15 -7z"/>
<path d="M1631 1775 c0 -11 6 -33 14 -50 l14 -30 -6 30 c-3 17 -10 39 -14 50
l-8 20 0 -20z"/>
<path d="M3321 1774 c0 -11 3 -14 6 -6 3 7 2 16 -1 19 -3 4 -6 -2 -5 -13z"/>
<path d="M1480 1775 c0 -2 5 -16 12 -30 9 -21 9 -28 -1 -34 -9 -6 -10 -11 -2
-15 6 -4 11 -1 11 6 0 11 44 -74 51 -100 3 -10 15 -20 89 -76 l65 -50 -75 80
c-55 57 -85 99 -109 152 -28 63 -41 84 -41 67z"/>
<path d="M1781 1714 c0 -11 3 -14 6 -6 3 7 2 16 -1 19 -3 4 -6 -2 -5 -13z"/>
<path d="M1501 1673 c-2 -22 28 -159 44 -198 16 -41 15 -31 -10 70 -8 33 -18
78 -23 100 -6 22 -10 35 -11 28z"/>
<path d="M1670 1655 c0 -5 5 -17 10 -25 5 -8 10 -10 10 -5 0 6 -5 17 -10 25
-5 8 -10 11 -10 5z"/>
<path d="M2957 1641 c-4 -17 -3 -21 5 -13 5 5 8 16 6 23 -3 8 -7 3 -11 -10z"/>
<path d="M3080 1634 c-19 -13 -39 -27 -45 -31 -5 -5 -29 -8 -52 -7 -34 0 -43
-4 -52 -23 -18 -39 -33 -26 -16 14 8 20 13 38 11 40 -9 9 -87 -71 -82 -83 3
-7 0 -16 -6 -20 -7 -5 -8 -2 -3 6 17 27 -20 2 -49 -33 -28 -35 -28 -38 -13
-55 10 -10 14 -22 10 -25 -3 -4 3 -7 15 -7 11 0 23 8 25 18 3 9 4 5 3 -10 -1
-15 -11 -37 -21 -50 -11 -13 -13 -17 -5 -10 20 17 33 15 25 -5 -5 -15 -4 -16
7 -5 7 7 13 24 13 37 2 28 20 35 20 7 0 -13 8 -17 35 -17 19 0 40 -3 47 -8 6
-4 14 -3 17 2 4 5 20 9 36 9 24 -1 27 -4 20 -17 -4 -9 -18 -25 -29 -35 -12
-11 -21 -23 -21 -28 0 -5 34 25 75 66 72 72 77 74 95 59 10 -9 16 -21 13 -26
-3 -6 -1 -7 5 -3 16 10 45 -39 37 -64 -3 -11 -11 -20 -16 -20 -5 0 -9 -6 -9
-14 0 -8 -9 -17 -19 -21 -11 -3 -22 -12 -25 -20 -3 -8 -20 -24 -38 -35 -18
-11 -27 -20 -20 -20 21 0 54 20 90 53 17 17 32 27 32 23 0 -5 9 3 21 18 11 14
25 26 31 26 31 0 -75 -82 -184 -144 -18 -10 -28 -21 -21 -23 7 -3 26 5 43 17
16 12 35 18 40 15 16 -10 -62 -46 -86 -40 -13 3 -27 -1 -34 -10 -11 -13 -8
-15 19 -15 53 0 95 25 153 91 106 122 109 125 115 112 7 -19 19 -16 20 6 1 14
-3 17 -18 14 -15 -4 -18 -2 -13 11 3 9 11 16 17 16 6 0 2 7 -9 15 -10 8 -13
15 -7 15 20 0 10 43 -14 63 -13 10 -23 25 -23 33 0 12 -19 19 -42 15 -12 -2
-9 6 10 25 16 17 16 18 -2 11 -12 -5 -26 -1 -39 10 -13 12 -21 14 -24 6 -5
-13 -56 -2 -79 18 -28 23 3 33 32 10 15 -12 29 -19 32 -16 3 2 -6 13 -19 24
-23 19 -24 19 -5 40 24 26 20 25 -24 -5z m-192 -54 c-22 -30 -35 -41 -22 -17
9 16 36 47 41 47 2 0 -6 -13 -19 -30z m117 0 c-3 -5 -12 -10 -18 -10 -7 0 -6
4 3 10 19 12 23 12 15 0z m195 -84 c0 -2 -7 -6 -15 -10 -8 -3 -15 -1 -15 4 0
6 7 10 15 10 8 0 15 -2 15 -4z m-337 -39 c3 -8 -1 -14 -8 -14 -7 0 -11 6 -8
14 3 7 6 13 8 13 2 0 5 -6 8 -13z m222 -7 c-3 -5 -10 -10 -16 -10 -5 0 -9 5
-9 10 0 6 7 10 16 10 8 0 12 -4 9 -10z m65 -255 c-7 -9 -15 -13 -19 -10 -3 3
1 10 9 15 21 14 24 12 10 -5z"/>
<path d="M2773 1573 c-3 -8 -3 -17 1 -20 3 -4 6 1 6 11 0 9 4 15 9 11 5 -3 12
-2 15 3 3 5 -2 9 -10 9 -9 0 -18 -7 -21 -14z"/>
<path d="M3239 1563 c-13 -16 -12 -17 4 -4 16 13 21 21 13 21 -2 0 -10 -8 -17
-17z"/>
<path d="M3280 1554 c0 -14 -3 -23 -7 -21 -5 3 -8 -8 -8 -24 0 -16 6 -31 13
-34 9 -3 10 3 6 22 -4 15 -3 24 3 20 5 -3 10 10 11 29 2 19 -2 34 -8 34 -5 0
-10 -12 -10 -26z"/>
<path d="M3987 1500 c-8 -93 -41 -299 -58 -370 -7 -25 -25 -76 -42 -113 -26
-57 -28 -70 -16 -78 17 -11 99 -12 117 -1 9 7 12 79 10 328 -2 235 -5 297 -11
234z"/>
<path d="M1759 1496 c14 -14 29 -26 34 -26 13 0 -12 29 -37 42 -19 10 -18 8 3
-16z"/>
<path d="M1704 1468 c-4 -7 -4 -10 1 -6 4 4 15 2 24 -5 14 -11 14 -10 2 6 -16
20 -18 21 -27 5z"/>
<path d="M2719 1463 c-13 -16 -12 -17 4 -4 9 7 17 15 17 17 0 8 -8 3 -21 -13z"/>
<path d="M1247 1364 c-3 -43 -2 -97 2 -119 5 -22 12 -89 16 -150 3 -60 20
-189 36 -285 17 -96 35 -211 40 -255 11 -96 29 -176 38 -171 3 2 6 35 5 73 -1
44 1 59 6 42 7 -26 5 -99 -6 -174 l-5 -40 45 49 c39 41 44 51 33 65 -10 14
-10 14 5 3 15 -12 21 -7 52 42 53 83 67 124 68 198 1 57 -3 76 -31 129 -18 34
-30 63 -27 66 2 2 19 -26 38 -64 32 -66 33 -71 33 -193 -1 -69 1 -115 3 -102
2 12 8 22 13 22 5 0 9 6 9 14 0 16 59 20 61 4 2 -12 5 -21 12 -38 3 -8 8 -31
10 -50 2 -19 4 2 5 47 1 68 -2 84 -19 99 -10 9 -19 22 -19 27 0 6 7 2 16 -9
30 -37 5 37 -36 106 -37 64 -53 85 -176 247 -67 88 -137 236 -189 397 l-32 99
-6 -79z m118 -299 c34 -84 61 -222 31 -160 -19 38 -76 232 -75 254 0 13 1 14
6 1 3 -8 20 -51 38 -95z m129 -171 c3 -8 2 -12 -4 -9 -6 3 -10 10 -10 16 0 14
7 11 14 -7z m150 -220 c3 -8 2 -12 -4 -9 -6 3 -10 10 -10 16 0 14 7 11 14 -7z
m54 -141 c0 -21 -2 -23 -10 -9 -5 9 -6 21 -3 26 10 16 13 12 13 -17z"/>
<path d="M1560 1425 c0 -5 5 -17 10 -25 5 -8 10 -10 10 -5 0 6 -5 17 -10 25
-5 8 -10 11 -10 5z"/>
<path d="M3848 1400 c-4 -19 -7 -98 -7 -175 0 -105 2 -134 10 -115 15 36 21
184 12 260 -8 59 -9 62 -15 30z"/>
<path d="M976 1265 c-9 -75 -24 -161 -32 -191 -8 -31 -11 -60 -8 -66 4 -6 2
-8 -4 -4 -13 8 -26 -29 -16 -45 4 -7 3 -9 -3 -6 -6 4 -24 -23 -41 -61 -70
-157 -81 -178 -96 -197 -12 -14 -11 -7 4 23 32 65 19 60 -15 -6 -17 -31 -58
-87 -92 -123 -35 -37 -63 -70 -63 -75 0 -4 -8 -17 -18 -28 -10 -12 -24 -34
-31 -51 l-13 -30 27 25 c15 14 31 35 36 48 5 13 13 20 19 17 9 -6 14 8 11 28
-1 5 3 6 8 3 5 -3 12 2 15 11 6 15 9 15 16 3 5 -8 6 -18 3 -23 -3 -4 -6 -18
-7 -30 -10 -83 -159 -441 -181 -433 -6 2 -11 -9 -10 -25 0 -28 1 -29 52 -29
52 0 53 0 53 30 0 17 4 30 9 30 4 0 6 12 3 26 -3 19 -1 25 6 20 8 -4 10 -2 6
8 -3 8 -2 21 2 28 5 7 10 22 11 33 3 20 21 82 50 180 9 28 31 80 49 117 19 37
34 75 34 83 0 9 4 14 9 11 4 -3 6 6 3 21 -3 16 -1 24 6 20 10 -7 22 14 22 36
0 7 -4 6 -10 -3 -19 -30 -9 1 20 63 17 35 30 71 30 80 0 10 4 17 9 17 5 0 7
-10 5 -22 -4 -21 -4 -21 5 -3 5 11 5 24 1 29 -10 10 1 49 27 100 l20 38 13
-31 c10 -26 10 -34 0 -44 -10 -10 -11 -8 -6 10 11 36 -10 35 -30 -2 -14 -27
-16 -39 -8 -52 9 -14 5 -28 -14 -63 -14 -25 -33 -56 -44 -69 -23 -30 -23 -33
3 -50 19 -11 21 -11 16 3 -5 12 -2 16 11 14 13 -2 17 4 17 29 0 18 5 32 10 30
6 -1 9 -12 7 -25 -2 -20 1 -22 25 -20 25 3 28 0 26 -27 -17 -281 -16 -274 -67
-375 -56 -111 -70 -132 -80 -123 -4 4 -4 0 -1 -8 3 -9 -1 -22 -10 -29 -8 -7
-15 -17 -15 -22 0 -10 -40 -70 -55 -80 -6 -5 -4 -8 5 -8 8 0 23 12 32 28 9 15
36 60 60 100 25 39 48 69 53 65 4 -5 5 -3 1 4 -3 6 3 26 13 45 11 18 30 60 42
92 12 33 30 73 40 90 28 49 59 188 59 268 0 52 3 69 10 58 12 -17 8 22 -15
200 -25 183 -27 223 -15 295 19 111 23 155 13 155 -5 0 -17 -61 -27 -135z"/>
<path d="M3601 1307 c-13 -21 -12 -21 5 -5 10 10 16 20 13 22 -3 3 -11 -5 -18
-17z"/>
<path d="M1158 1253 c-3 -27 -1 -55 3 -63 5 -9 9 10 9 48 0 74 -6 81 -12 15z"/>
<path d="M3275 1255 c-4 -25 -5 -48 -2 -51 2 -3 8 16 12 41 3 26 4 49 2 52 -3
3 -9 -16 -12 -42z"/>
<path d="M3312 1275 c0 -16 2 -22 5 -12 2 9 2 23 0 30 -3 6 -5 -1 -5 -18z"/>
<path d="M3415 1279 c-4 -6 -5 -12 -2 -15 2 -3 7 2 10 11 7 17 1 20 -8 4z"/>
<path d="M3602 1233 c-15 -48 -8 -55 8 -8 7 20 10 38 8 41 -3 2 -10 -13 -16
-33z"/>
<path d="M1027 1065 c5 -222 11 -242 11 -40 0 88 -3 171 -7 185 -4 14 -6 -51
-4 -145z"/>
<path d="M1635 1200 c3 -5 11 -10 16 -10 6 0 7 5 4 10 -3 6 -11 10 -16 10 -6
0 -7 -4 -4 -10z"/>
<path d="M3791 1164 c-8 -21 -30 -73 -50 -115 -20 -42 -31 -75 -26 -72 6 2 20
-15 31 -38 l20 -42 27 53 c28 56 31 92 19 199 l-7 54 -14 -39z"/>
<path d="M1611 1150 c7 -14 12 -29 10 -35 -1 -5 1 -7 5 -3 4 4 14 2 23 -4 9
-7 5 1 -9 17 -41 49 -43 51 -29 25z"/>
<path d="M3570 1149 c-7 -11 -10 -23 -7 -25 2 -2 9 7 15 21 14 30 7 33 -8 4z"/>
<path d="M2963 1074 c-10 -11 -31 -47 -48 -80 -16 -32 -58 -87 -92 -122 -86
-87 -160 -120 -425 -186 -119 -30 -230 -62 -247 -71 -29 -14 -33 -14 -68 4
-21 11 -68 44 -104 73 -36 29 -96 77 -133 107 -37 29 -78 70 -92 90 -39 57
-28 25 26 -78 34 -65 42 -86 25 -66 -14 17 -44 66 -67 110 -39 74 -130 203
-115 162 4 -10 7 -27 7 -38 0 -11 7 -19 16 -19 13 0 14 -3 5 -14 -9 -11 -8
-28 4 -73 31 -112 48 -149 106 -222 67 -84 143 -143 214 -164 43 -14 46 -16
19 -16 -62 -2 -162 66 -241 164 l-33 40 14 -40 c8 -22 30 -76 49 -120 20 -44
41 -93 47 -109 6 -16 13 -27 15 -24 3 2 -6 33 -20 68 -28 70 -28 92 0 33 25
-55 35 -65 50 -53 9 7 16 6 25 -5 7 -8 19 -15 27 -15 8 0 12 -4 8 -9 -3 -5 4
-12 15 -16 15 -5 19 -12 15 -26 -7 -21 5 -25 22 -8 8 8 13 7 18 -1 4 -7 1 -16
-6 -21 -10 -6 -7 -9 11 -9 25 0 25 0 -5 -16 -39 -20 -38 -19 -23 -43 10 -16
23 -21 55 -21 24 0 43 5 43 10 0 6 10 2 22 -10 27 -25 44 -25 110 0 66 25 84
25 150 0 29 -11 73 -22 98 -25 54 -7 59 -11 34 -31 -27 -22 3 -6 54 28 44 30
185 103 231 119 25 9 25 8 -4 -16 -16 -14 -68 -45 -115 -70 -103 -55 -220
-123 -252 -148 l-23 -19 25 15 c14 7 47 26 73 42 26 15 50 25 53 22 3 -3 -5
-11 -18 -18 -12 -6 -41 -26 -63 -43 -21 -17 -44 -30 -50 -29 -6 2 -26 -13 -44
-32 -45 -48 -16 -45 40 3 104 91 183 131 279 141 l55 6 57 94 c32 52 55 98 52
102 -9 15 16 87 32 93 8 3 12 11 8 17 -4 8 -3 9 4 5 8 -4 12 0 12 12 0 28 94
169 98 147 2 -10 0 -20 -5 -24 -6 -3 -29 -42 -53 -86 -24 -44 -54 -97 -67
-118 -14 -22 -22 -41 -20 -43 6 -6 73 95 86 128 5 13 23 48 41 78 22 38 32 67
32 91 -1 24 3 39 12 42 16 6 39 75 30 89 -3 4 0 8 5 8 6 0 11 6 11 14 0 8 4
17 10 21 5 3 3 -14 -4 -37 -27 -90 -28 -94 -17 -78 12 17 66 187 76 240 3 19
9 43 12 54 4 16 1 15 -28 -7 -34 -25 -138 -70 -192 -82 -51 -11 -26 16 60 64
44 25 93 55 107 66 l26 20 -69 0 c-58 0 -73 -4 -88 -21z m64 0 c-3 -3 -12 -4
-19 -1 -8 3 -5 6 6 6 11 1 17 -2 13 -5z m100 -86 c-3 -8 -6 -5 -6 6 -1 11 2
17 5 13 3 -3 4 -12 1 -19z m-19 -73 c-7 -21 -20 -40 -28 -42 -9 -3 -11 -1 -5
4 6 4 17 28 25 52 8 24 16 39 17 34 2 -5 -2 -27 -9 -48z m-1308 -370 c0 -8 -2
-15 -4 -15 -2 0 -6 7 -10 15 -3 8 -1 15 4 15 6 0 10 -7 10 -15z m258 -267 c-3
-7 -18 -14 -34 -16 -28 -3 -28 -3 -9 12 24 19 48 21 43 4z m542 -92 c-8 -8
-26 -17 -40 -20 -19 -5 -17 -2 10 13 42 24 49 26 30 7z"/>
<path d="M3501 1084 c0 -11 3 -14 6 -6 3 7 2 16 -1 19 -3 4 -6 -2 -5 -13z"/>
<path d="M3291 1074 c0 -11 3 -14 6 -6 3 7 2 16 -1 19 -3 4 -6 -2 -5 -13z"/>
<path d="M1690 1076 c0 -2 23 -21 51 -41 28 -20 48 -32 45 -26 -8 12 -96 74
-96 67z"/>
<path d="M3470 1012 c-35 -37 -63 -71 -62 -76 2 -5 -10 -23 -25 -40 -16 -17
-40 -44 -53 -60 -25 -29 -24 -29 18 4 23 18 57 56 75 84 34 54 44 68 91 122
46 55 26 39 -44 -34z"/>
<path d="M1656 1045 c9 -14 19 -24 21 -21 6 6 -20 46 -30 46 -4 0 0 -11 9 -25z"/>
<path d="M635 1019 c-4 -6 -5 -12 -2 -15 2 -3 7 2 10 11 7 17 1 20 -8 4z"/>
<path d="M1110 933 c0 -27 -8 -95 -16 -153 -20 -128 -20 -145 5 -290 19 -105
20 -110 18 -50 -2 76 11 172 23 165 14 -8 20 24 10 51 -14 37 -12 40 9 15 18
-21 48 -122 55 -187 2 -17 6 -35 9 -41 3 -5 2 -15 -4 -23 -7 -12 -9 -11 -10 5
0 11 -7 -1 -15 -27 -9 -29 -20 -48 -29 -48 -8 0 -15 -7 -15 -15 0 -9 -6 -26
-13 -38 -8 -15 -11 -63 -9 -160 3 -132 4 -138 23 -135 27 4 81 137 121 298 27
111 29 134 23 213 -7 87 -20 149 -52 235 -18 49 -27 51 -14 4 6 -20 6 -34 0
-38 -5 -3 -9 -2 -8 3 1 4 -11 38 -28 74 -17 36 -41 94 -53 128 -13 33 -24 61
-26 61 -2 0 -4 -21 -4 -47z"/>
<path d="M1700 971 c0 -5 5 -13 10 -16 6 -3 10 -2 10 4 0 5 -4 13 -10 16 -5 3
-10 2 -10 -4z"/>
<path d="M3240 909 c-8 -23 -25 -54 -37 -68 -13 -14 -42 -51 -64 -81 l-41 -55
41 45 c23 25 50 54 61 66 24 25 63 110 58 126 -2 6 -10 -9 -18 -33z"/>
<path d="M391 883 c-18 -30 -30 -57 -27 -60 3 -4 7 0 7 8 1 8 5 -2 9 -21 l7
-35 2 38 c0 21 10 56 22 78 30 60 19 55 -20 -8z"/>
<path d="M2305 930 c3 -5 8 -10 11 -10 2 0 4 5 4 10 0 6 -5 10 -11 10 -5 0 -7
-4 -4 -10z"/>
<path d="M3821 910 l-21 -30 25 -38 c34 -52 157 -153 171 -140 2 3 3 51 2 107
l-3 101 -52 -35 c-29 -19 -58 -35 -65 -35 -7 0 9 15 36 33 l50 32 -50 10 c-27
5 -54 13 -60 17 -6 4 -20 -6 -33 -22z"/>
<path d="M1073 860 c0 -30 2 -43 4 -27 2 15 2 39 0 55 -2 15 -4 2 -4 -28z"/>
<path d="M3639 893 c-13 -16 -12 -17 4 -4 16 13 21 21 13 21 -2 0 -10 -8 -17
-17z"/>
<path d="M510 836 c-7 -14 -18 -23 -23 -19 -6 4 -7 1 -2 -7 6 -10 12 -7 26 11
20 26 25 19 9 -12 -6 -10 -8 -19 -6 -19 9 0 38 62 32 68 -3 3 -6 -1 -6 -9 0
-11 -2 -11 -8 -1 -6 9 -12 6 -22 -12z"/>
<path d="M3398 823 c17 -2 47 -2 65 0 17 2 3 4 -33 4 -36 0 -50 -2 -32 -4z"/>
<path d="M161 765 c-6 -22 -10 -51 -10 -65 1 -15 7 -2 15 30 16 64 12 94 -5
35z"/>
<path d="M456 784 c-10 -25 1 -29 14 -5 6 12 7 21 1 21 -5 0 -12 -7 -15 -16z"/>
<path d="M1062 775 c0 -16 2 -22 5 -12 2 9 2 23 0 30 -3 6 -5 -1 -5 -18z"/>
<path d="M411 725 c-12 -31 -21 -63 -21 -73 0 -11 -3 -13 -8 -5 -4 6 -7 -11
-7 -37 0 -57 10 -57 19 0 3 23 10 38 16 35 5 -3 11 -1 15 5 4 6 10 8 14 6 4
-3 17 16 29 42 13 26 16 38 7 28 -13 -17 -15 -17 -15 -4 0 17 17 33 34 33 5 0
11 7 13 15 4 13 3 13 -6 0 -6 -8 -11 -11 -11 -6 0 5 -7 2 -16 -5 -14 -11 -18
-11 -29 4 -12 16 -15 12 -34 -38z m39 15 c0 -5 -4 -10 -10 -10 -5 0 -10 5 -10
10 0 6 5 10 10 10 6 0 10 -4 10 -10z m-6 -35 c-6 16 -4 17 6 8 9 -8 9 -16 1
-30 -6 -10 -11 -14 -11 -9 0 6 -7 1 -15 -10 -8 -10 -15 -14 -15 -7 0 6 5 15
10 18 6 4 8 16 4 28 -6 22 -6 22 10 2 l16 -20 -6 20z"/>
<path d="M372 750 c0 -14 2 -19 5 -12 2 6 2 18 0 25 -3 6 -5 1 -5 -13z"/>
<path d="M89 719 c-18 -17 -46 -37 -61 -45 l-29 -15 3 -116 3 -116 47 54 c27
29 53 65 60 80 7 15 15 26 19 23 4 -2 11 0 14 6 4 6 2 9 -3 8 -6 -2 -10 0 -11
5 -3 19 0 28 7 23 4 -2 8 7 9 22 2 24 1 24 -7 7 -7 -16 -9 -10 -11 25 -1 25
-2 51 -2 58 1 17 -1 16 -38 -19z m-28 -202 c-10 -9 -11 -8 -5 6 3 10 9 15 12
12 3 -3 0 -11 -7 -18z m-27 -48 c-10 -16 -23 -9 -21 10 1 15 4 17 14 9 7 -5
10 -14 7 -19z"/>
<path d="M1051 724 c0 -11 3 -14 6 -6 3 7 2 16 -1 19 -3 4 -6 -2 -5 -13z"/>
<path d="M1031 714 c0 -11 3 -14 6 -6 3 7 2 16 -1 19 -3 4 -6 -2 -5 -13z"/>
<path d="M372 700 c0 -14 2 -19 5 -12 2 6 2 18 0 25 -3 6 -5 1 -5 -13z"/>
<path d="M3035 709 c-4 -6 -5 -12 -2 -15 2 -3 7 2 10 11 7 17 1 20 -8 4z"/>
<path d="M3122 690 c-19 -10 -43 -27 -55 -37 -19 -16 -19 -15 3 16 14 21 18
32 10 29 -8 -2 -33 -47 -57 -99 -23 -52 -37 -85 -30 -75 6 11 38 44 71 75 49
47 105 112 94 110 -2 0 -18 -9 -36 -19z"/>
<path d="M170 635 c-7 -9 -8 -15 -2 -15 5 0 12 7 16 15 3 8 4 15 2 15 -2 0 -9
-7 -16 -15z"/>
<path d="M3750 624 c0 -28 35 -92 67 -122 20 -17 63 -46 97 -62 33 -16 56 -30
50 -30 -28 0 -122 34 -141 53 -13 11 -23 16 -23 10 0 -16 116 -237 160 -305
l40 -62 0 145 0 145 -68 67 c-38 38 -75 67 -83 65 -8 -2 -14 5 -14 16 0 11 -7
21 -15 23 -13 4 -13 3 0 -6 10 -7 11 -11 3 -11 -13 0 -39 39 -35 53 1 5 -2 6
-7 3 -5 -4 -14 2 -20 11 -6 10 -11 13 -11 7z"/>
<path d="M3051 551 c-22 -30 -100 -94 -86 -70 6 11 5 12 -5 2 -7 -7 -14 -23
-15 -35 -1 -13 -6 -23 -12 -23 -23 0 -170 -207 -242 -340 -48 -87 -44 -95 5
-12 28 47 34 52 66 51 19 -1 47 -4 62 -8 l28 -7 -20 -32 c-15 -26 -16 -35 -7
-44 10 -9 14 -5 18 16 3 15 31 79 61 143 31 64 56 122 56 128 0 6 5 8 10 5 6
-4 9 -3 8 2 -2 5 5 26 14 48 65 154 86 205 83 205 -2 0 -13 -13 -24 -29z
m-279 -383 c-6 -6 -15 -8 -19 -4 -4 4 -1 11 7 16 19 12 27 3 12 -12z m22 -27
c3 -4 -6 -6 -19 -3 -14 2 -25 6 -25 8 0 8 39 4 44 -5z"/>
<path d="M1012 503 c-11 -32 -28 -83 -37 -113 -18 -61 -66 -323 -60 -329 2 -2
7 10 11 25 4 16 17 52 29 79 52 120 74 208 80 325 1 38 2 70 0 70 -1 0 -12
-26 -23 -57z"/>
<path d="M367 530 c-3 -11 -3 -20 -1 -20 2 0 8 9 14 20 6 11 7 20 2 20 -6 0
-12 -9 -15 -20z"/>
<path d="M1580 513 c0 -9 -3 -14 -6 -10 -10 10 -43 -63 -37 -79 3 -9 0 -14 -7
-12 -7 2 -14 -3 -15 -10 -2 -7 -1 -8 1 -3 3 5 16 7 30 5 28 -5 31 3 7 23 -17
13 -16 14 5 8 16 -5 22 -2 22 9 0 9 -6 16 -12 16 -10 0 -10 2 -1 8 12 8 29 62
19 62 -3 0 -6 -7 -6 -17z"/>
<path d="M650 490 c0 -5 5 -10 11 -10 5 0 7 5 4 10 -3 6 -8 10 -11 10 -2 0 -4
-4 -4 -10z"/>
<path d="M1770 475 c0 -5 5 -17 10 -25 5 -8 10 -10 10 -5 0 6 -5 17 -10 25 -5
8 -10 11 -10 5z"/>
<path d="M1057 394 c-5 -54 -71 -267 -111 -357 l-16 -37 96 0 96 0 -6 123 c-8
139 -24 259 -41 301 -12 27 -12 26 -18 -30z"/>
<path d="M44 408 l-19 -23 23 19 c21 18 27 26 19 26 -2 0 -12 -10 -23 -22z"/>
<path d="M250 357 c-18 -28 -40 -58 -49 -66 -13 -11 -13 -13 -1 -9 17 5 96
115 88 123 -2 3 -20 -19 -38 -48z"/>
<path d="M1884 380 c1 -16 2 -30 2 -30 1 0 9 11 18 25 15 23 15 24 -1 18 -11
-4 -14 -3 -9 5 4 7 3 12 -2 12 -5 0 -9 -13 -8 -30z"/>
<path d="M1855 370 c-4 -12 1 -29 11 -42 14 -20 15 -20 9 -3 -5 11 -8 30 -8
43 1 27 -4 28 -12 2z"/>
<path d="M1504 361 c0 -11 4 -17 8 -15 4 3 8 12 8 20 0 8 -4 14 -8 14 -4 0 -8
-9 -8 -19z"/>
<path d="M1541 364 c0 -11 3 -14 6 -6 3 7 2 16 -1 19 -3 4 -6 -2 -5 -13z"/>
<path d="M1122 340 c0 -19 2 -27 5 -17 2 9 2 25 0 35 -3 9 -5 1 -5 -18z"/>
<path d="M1906 355 c-9 -26 -7 -32 5 -12 6 10 9 21 6 23 -2 3 -7 -2 -11 -11z"/>
<path d="M1437 317 l-48 -42 -2 -138 -2 -137 37 0 c33 0 38 3 48 36 15 44 10
49 -31 35 -50 -17 -45 -6 5 13 l45 17 6 62 c4 34 2 89 -3 122 -6 33 -8 63 -5
68 8 14 -2 6 -50 -36z"/>
<path d="M1341 293 c-1 -41 -34 -145 -53 -170 -6 -7 -8 -19 -5 -26 3 -8 1 -20
-5 -28 -8 -11 -9 -10 -4 3 3 10 3 18 1 18 -5 0 -45 -76 -45 -85 0 -3 19 -5 41
-5 28 0 46 6 55 18 11 13 13 14 9 1 -4 -9 0 -16 7 -16 9 0 12 12 9 40 -2 28
-6 36 -14 28 -6 -6 -19 -11 -30 -11 -18 0 -18 1 2 26 11 14 17 33 14 42 -4 13
-3 14 5 4 5 -8 13 -13 18 -12 5 1 10 -4 13 -11 2 -6 -1 -9 -7 -5 -6 3 -14 1
-18 -5 -4 -8 -3 -9 4 -5 7 4 13 -2 16 -16 3 -13 7 -32 9 -43 3 -11 5 36 5 105
0 82 -4 137 -13 160 l-13 35 -1 -42z"/>
<path d="M1886 298 c-3 -13 3 -50 13 -83 10 -33 23 -76 29 -95 8 -30 9 -26 4
25 -2 33 -13 77 -22 97 -10 21 -16 47 -13 58 3 11 3 20 0 20 -2 0 -7 -10 -11
-22z"/>
<path d="M1845 280 c10 -52 59 -192 63 -181 3 10 -56 202 -65 211 -3 3 -2 -11
2 -30z"/>
<path d="M1917 266 c7 -35 29 -41 28 -8 0 16 -6 28 -16 30 -13 2 -15 -3 -12
-22z"/>
<path d="M1817 192 c-7 -57 -23 -119 -42 -166 -6 -13 -5 -17 3 -13 21 14 53
134 50 189 l-3 53 -8 -63z"/>
<path d="M2962 230 c0 -14 2 -19 5 -12 2 6 2 18 0 25 -3 6 -5 1 -5 -13z"/>
<path d="M170 205 c-7 -8 -39 -33 -71 -54 -32 -22 -56 -41 -51 -44 4 -2 1 -2
-7 0 -22 6 -41 -17 -41 -49 l0 -30 34 25 c18 15 37 23 41 19 5 -4 5 -2 1 5 -4
7 12 32 39 60 67 69 79 83 73 83 -3 0 -11 -7 -18 -15z m-70 -69 c0 -2 -8 -10
-17 -17 -16 -13 -17 -12 -4 4 13 16 21 21 21 13z"/>
<path d="M2952 180 c0 -14 2 -19 5 -12 2 6 2 18 0 25 -3 6 -5 1 -5 -13z"/>
<path d="M2395 130 c-56 -33 -54 -41 3 -10 49 25 69 40 57 39 -5 0 -32 -13
-60 -29z"/>
<path d="M3923 125 c23 -44 77 -122 77 -111 0 5 -17 35 -37 65 -46 69 -60 85
-40 46z"/>
<path d="M1525 101 c-6 -11 13 -26 22 -17 4 3 0 6 -8 6 -11 0 -11 2 1 10 9 6
10 10 3 10 -6 0 -14 -4 -18 -9z"/>
<path d="M1912 65 c0 -11 4 -31 8 -45 6 -20 8 -21 8 -5 0 11 -4 31 -8 45 -6
20 -8 21 -8 5z"/>
<path d="M3454 58 l-19 -23 23 19 c12 11 22 21 22 23 0 8 -8 2 -26 -19z"/>
<path d="M14 18 l-19 -23 25 20 c14 11 27 21 29 22 2 2 0 3 -6 3 -5 0 -18 -10
-29 -22z"/>
</g>
</svg>
